<svg width="261" height="259" viewBox="0 0 261 259" fill="none" xmlns="http://www.w3.org/2000/svg">
<path fill-rule="evenodd" clip-rule="evenodd" d="M92.3399 224.05V178.491C92.3399 175.337 91.3343 172.625 89.2738 170.222L35.3049 107.3C30.2595 101.418 31.0349 92.4908 36.9808 87.5046C42.9273 82.5178 51.9036 83.2652 56.9277 89.1668L92.7737 131.266C95.302 134.236 98.674 135.789 102.592 135.789H154.427C158.345 135.789 161.717 134.236 164.245 131.266L200.09 89.1668C205.115 83.2652 214.091 82.5173 220.038 87.5046C225.984 92.4913 226.759 101.418 221.713 107.3L167.744 170.222C165.684 172.624 164.678 175.336 164.678 178.491V224.052C153.316 227.833 141.154 229.882 128.509 229.882C115.864 229.882 103.702 227.831 92.3399 224.05Z" fill="#66D4F1"/>
<path d="M149.532 106.721C161.156 95.1846 161.156 76.481 149.532 64.945C137.908 53.409 119.063 53.4091 107.439 64.9453C95.8148 76.4815 95.8146 95.1852 107.438 106.721C119.062 118.257 137.908 118.257 149.532 106.721Z" fill="#EFC7A4"/>
<path d="M242.137 240.317C256.195 226.366 256.195 203.746 242.137 189.794C228.079 175.842 205.287 175.842 191.23 189.794C177.172 203.746 177.172 226.366 191.23 240.317C205.287 254.269 228.079 254.269 242.137 240.317Z" fill="#C6EA94"/>
<path fill-rule="evenodd" clip-rule="evenodd" d="M41.3585 29.1591H52.6593C54.6566 29.1591 56.2637 27.5492 56.2637 25.5624C56.2637 23.578 54.6561 21.9682 52.6593 21.9682H41.3585C39.3612 21.9682 37.7298 23.578 37.7298 25.5624C37.7298 27.5498 39.3617 29.1591 41.3585 29.1591ZM62.8639 50.5047C64.8612 50.5047 66.4926 48.8928 66.4926 46.908V35.6997C66.4926 33.7154 64.8607 32.1055 62.8639 32.1055C60.8671 32.1055 59.2351 33.7154 59.2351 35.6997V46.908C59.2351 48.8923 60.8671 50.5047 62.8639 50.5047ZM62.8639 19.0243C64.8612 19.0243 66.4926 17.4119 66.4926 15.4276V4.21929C66.4926 2.23241 64.8607 0.622559 62.8639 0.622559C60.8671 0.622559 59.2351 2.23241 59.2351 4.21929V15.4276C59.2351 17.4124 60.8671 19.0243 62.8639 19.0243ZM73.0685 29.1591H84.3693C86.3666 29.1591 87.998 27.5492 87.998 25.5624C87.998 23.578 86.3661 21.9682 84.3693 21.9682H73.0685C71.0716 21.9682 69.4397 23.578 69.4397 25.5624C69.4397 27.5498 71.0716 29.1591 73.0685 29.1591ZM102.368 85.8305C102.368 100.135 114.082 111.773 128.5 111.773C142.918 111.773 154.657 100.135 154.657 85.8305C154.657 71.5237 142.918 59.8854 128.5 59.8854C114.082 59.8854 102.368 71.5237 102.368 85.8305ZM95.1095 85.8305C95.1095 67.5597 110.088 52.6945 128.5 52.6945C146.912 52.6945 161.89 67.5597 161.89 85.8305C161.89 104.101 146.912 118.966 128.5 118.966C110.088 118.966 95.1095 104.101 95.1095 85.8305ZM239.533 201.324C238.193 199.845 235.88 199.734 234.394 201.058L208.407 224.317L197.082 210.407C195.84 208.861 193.551 208.619 191.992 209.868C191.621 210.164 191.313 210.53 191.085 210.945C190.857 211.36 190.714 211.815 190.664 212.285C190.615 212.754 190.659 213.229 190.795 213.682C190.931 214.135 191.155 214.556 191.456 214.922L205.168 231.791C205.801 232.555 206.702 233.039 207.701 233.116C207.798 233.121 207.895 233.126 207.993 233.126C208.87 233.126 209.747 232.797 210.405 232.202L239.265 206.4C239.618 206.084 239.906 205.702 240.111 205.276C240.315 204.85 240.434 204.388 240.458 203.917C240.483 203.445 240.414 202.974 240.256 202.529C240.097 202.084 239.851 201.675 239.533 201.324ZM249.105 215.055C249.105 232.772 234.589 247.186 216.737 247.186C198.884 247.186 184.345 232.773 184.345 215.055C184.345 197.338 198.885 182.925 216.737 182.925C234.589 182.925 249.105 197.338 249.105 215.055ZM128.5 226.285C117.175 226.285 106.24 224.579 95.962 221.41V178.492C95.962 174.502 94.6468 170.931 92.0165 167.891L38.0709 104.969C36.2686 102.871 35.3919 100.18 35.6357 97.3963C35.8551 94.5901 37.1698 92.052 39.313 90.2511C41.4563 88.4579 44.184 87.6021 46.9846 87.8363C49.8095 88.0706 52.3426 89.3666 54.1448 91.4885L89.9948 133.587C93.2338 137.379 97.5934 139.386 102.586 139.386H154.437C159.429 139.386 163.789 137.379 167.004 133.587L202.854 91.4885C206.605 87.0869 213.253 86.5311 217.686 90.2511C219.854 92.052 221.144 94.5896 221.388 97.3963C221.607 100.181 220.755 102.871 218.952 104.969L164.984 167.891C162.378 170.932 161.062 174.497 161.062 178.492V221.447C150.614 224.656 139.703 226.285 128.5 226.285ZM256.338 215.055C256.338 236.736 238.584 254.376 216.737 254.376C197.522 254.376 181.472 240.734 177.867 222.693C162.378 229.843 145.792 233.476 128.5 233.476C97.1798 233.476 67.7105 221.368 45.5478 199.378C23.3851 177.387 11.1832 148.15 11.1832 117.051C11.1832 87.9206 22.0943 60.0421 41.8699 38.549C43.2337 37.082 45.5229 36.9777 46.9846 38.3194C48.47 39.6585 48.5679 41.9331 47.2278 43.3976C28.6696 63.5633 18.4407 89.721 18.4407 117.051C18.4407 163.363 47.6419 203.03 88.704 218.898V178.492C88.704 176.191 88.0218 174.306 86.512 172.554L32.5421 109.631C29.4734 106.066 28.0122 101.51 28.402 96.8066C28.7917 92.0808 31.008 87.803 34.6367 84.76C38.2655 81.7267 42.8688 80.2735 47.5933 80.6701C52.3426 81.0641 56.6291 83.2585 59.6973 86.8455L95.5474 128.944C97.3739 131.1 99.7367 132.192 102.586 132.192H154.437C157.262 132.192 159.649 131.1 161.475 128.944L197.326 86.8455C203.658 79.4152 214.885 78.4798 222.362 84.7595C225.991 87.8024 228.207 92.0808 228.597 96.8061C229.011 101.51 227.526 106.063 224.481 109.631L170.512 172.553C169.002 174.305 168.296 176.191 168.296 178.492V218.927C171.289 217.77 174.23 216.484 177.112 215.075V215.055C177.112 193.374 194.891 175.734 216.737 175.734C218.247 175.734 219.733 175.826 221.194 175.991C232.568 158.414 238.583 138.062 238.583 117.052C238.583 56.8188 189.192 7.81448 128.5 7.81448C116.42 7.81448 104.535 9.74794 93.1857 13.5599C92.7361 13.7119 92.2607 13.7741 91.7868 13.743C91.3129 13.712 90.8499 13.5882 90.4243 13.3789C89.9988 13.1695 89.6192 12.8787 89.3073 12.5232C88.9955 12.1677 88.7575 11.7546 88.6072 11.3074C87.9499 9.42689 88.9726 7.38453 90.8721 6.74861C102.952 2.68495 115.616 0.623072 128.5 0.623072C159.845 0.623072 189.314 12.7349 211.452 34.7257C233.615 56.714 245.817 85.9512 245.817 117.052C245.817 138.537 239.923 159.377 228.744 177.583C244.721 182.642 256.338 197.529 256.338 215.055ZM25.796 204.5C23.7986 204.5 22.1672 206.107 22.1672 208.097V219.297C22.1672 221.287 23.7992 222.894 25.796 222.894C27.7928 222.894 29.4247 221.287 29.4247 219.297V208.097C29.4247 206.108 27.7933 204.5 25.796 204.5ZM15.5914 225.843H4.29061C2.29379 225.843 0.661865 227.45 0.661865 229.44C0.661865 231.422 2.29379 233.034 4.29061 233.034H15.5914C17.5882 233.034 19.1958 231.422 19.1958 229.44C19.1958 227.45 17.5887 225.843 15.5914 225.843ZM25.796 235.978C23.7986 235.978 22.1672 237.59 22.1672 239.575V250.782C22.1672 252.769 23.7992 254.376 25.796 254.376C27.7928 254.376 29.4247 252.769 29.4247 250.782V239.575C29.4247 237.59 27.7933 235.978 25.796 235.978ZM50.9301 229.44C50.9301 227.45 49.2982 225.843 47.3013 225.843H36.0005C34.0037 225.843 32.3961 227.45 32.3961 229.44C32.3961 231.422 34.0037 233.034 36.0005 233.034H47.3013C49.2982 233.034 50.9301 231.422 50.9301 229.44Z" fill="black"/>
</svg>
