<svg width="71" height="43" viewBox="0 0 71 43" fill="none" xmlns="http://www.w3.org/2000/svg">
<path d="M59.5935 22.1318C60.2413 19.2158 60.5304 15.9475 60.4514 12.394C60.447 12.1988 60.374 12.0119 60.2458 11.8675C60.1177 11.7231 59.943 11.6311 59.7539 11.6083C59.5382 11.5824 56.6571 11.26 52.9488 11.8683C52.7497 9.41563 52.1146 4.63906 50.1775 3.81448C47.9378 2.85868 43.5099 6.32953 41.3848 8.1739C39.9786 5.65966 38.1142 3.22642 35.7821 0.889573C35.6425 0.750052 35.4575 0.668333 35.2627 0.660111C35.0679 0.651888 34.877 0.717741 34.7267 0.845023C34.5181 1.0216 31.6299 3.5164 29.1027 7.69195C27.0645 6.15052 22.1902 2.76634 19.9592 3.82825C18.0079 4.75813 17.4375 9.68212 17.2724 12.2199C12.5932 11.2252 9.66233 11.4852 9.4751 11.5054C9.36746 11.5158 9.26305 11.5488 9.16839 11.6024C9.07373 11.656 8.99084 11.7289 8.92489 11.8168C8.85893 11.9046 8.81132 12.0055 8.78501 12.113C8.75871 12.2205 8.75428 12.3324 8.772 12.4418C9.44508 16.6595 10.7478 20.5369 12.6493 23.9892C4.03674 24.578 0.52203 26.7934 0.36956 26.8922C0.276732 26.9522 0.197127 27.0314 0.135829 27.1247C0.0745319 27.218 0.0328892 27.3234 0.0135603 27.4342C-0.00576855 27.5449 -0.00235891 27.6586 0.0235719 27.7679C0.0495027 27.8773 0.0973847 27.9798 0.16416 28.0691C8.77358 39.5938 18.9741 42.0902 26.2002 42.0902C30.8667 42.0902 34.285 41.051 35.2386 40.7254C36.3177 41.0688 40.5426 42.2919 45.906 42.2919C53.9592 42.2919 64.5697 39.5314 70.911 26.8873C70.9952 26.7196 71.0197 26.527 70.9802 26.3427C70.9406 26.1585 70.8396 25.9941 70.6946 25.8781C70.4765 25.7031 65.5706 21.8483 59.5935 22.1318ZM49.57 5.30893C50.3939 5.66047 51.1373 9.00901 51.3862 12.1721C49.0225 12.7099 46.4487 13.656 44.0708 15.2776C43.662 13.3227 43.0155 11.4281 42.1463 9.63838C44.9872 7.1371 48.4979 4.84966 49.57 5.30893ZM20.6244 5.29597C21.683 4.78891 25.3091 6.81229 28.3016 9.09892C27.3647 10.8582 26.5336 12.8606 25.9822 15.0694C23.3562 13.9192 20.9491 13.1246 18.8327 12.5868C19.0309 9.27145 19.7585 5.70826 20.6244 5.29597ZM2.0096 27.8585C3.49717 27.1919 7.13275 25.9032 13.5689 25.5549C19.2213 34.6228 27.8086 38.4525 32.239 39.8984C26.5849 41.1595 13.1968 42.1761 2.0096 27.8585ZM14.663 24.2969L14.6615 24.2929C12.6501 20.98 11.2471 17.2143 10.4855 13.0857C12.5522 13.0517 18.267 13.3968 25.6361 16.6765C25.4614 17.6597 25.3516 18.654 25.3075 19.6524C25.0278 26.0636 27.529 32.3378 32.7311 38.3391C28.4651 36.9232 19.9971 33.1389 14.663 24.2969ZM35.2165 38.7085C29.4092 32.5946 26.607 26.2167 26.8851 19.7399C27.2643 10.9044 33.3489 4.37419 35.2022 2.58409C40.3633 7.9552 42.9774 13.8058 42.9758 19.9829C42.9719 29.225 37.0556 36.63 35.2165 38.7085ZM44.5551 19.9983C44.554 19.0126 44.4904 18.0279 44.3647 17.0507C49.7477 13.0363 56.6989 13.0469 58.8825 13.1635C58.9086 16.7267 58.5452 19.9683 57.8002 22.8106L57.7907 22.8462C54.0177 37.214 41.6163 38.945 37.0129 39.0851C39.4343 36.1959 44.5479 29.0273 44.5558 19.9999L44.5551 19.9983ZM40.4739 40.3171C46.455 39.316 55.7873 35.7973 59.1764 23.7826C63.7007 23.3727 67.7637 25.7995 69.1857 26.7683C61.4674 41.4123 47.817 41.5184 40.4739 40.3171Z" fill="black"/>
</svg>
